# xmcd CD database file
#
# Track frame offsets:
#	150
#	22773
#	41059
#	62712
#	84526
#	108260
#	129081
#	141765
#	165384
#	184203
#	203408
#	212279
#	224228
#	235309
#	249652
#	261424
#	277902
#	287794
#	297574
#	315191
#	327929
#	342550
#
# Disc length: 4799 seconds
#
# Revision: 0
# Processed by: cddbd v1.5.1PL0 Copyright (c) Steve Scherf et al.
# Submitted via: CDex 1.51
#
DISCID=4a12bd16
DTITLE=Robert Pete Williams, Ford "Blind snooks" Eaglin - Rural Blues
DYEAR=1900
DGENRE=Blues
TTITLE0=Robert Pete Williams, Free again
TTITLE1=Robert Pete Williams, Almost dead blues
TTITLE2=Robert Pete Williams, Rolling stone
TTITLE3=Robert Pete Williams, Two wings
TTITLE4=Robert Pete Williams, A thousand miles from nowhere
TTITLE5=Robert Pete Williams, Thumbing a ride
TTITLE6=Robert Pete Williams, I've grown so ugly
TTITLE7=Robert Pete Williams, Death blues
TTITLE8=Robert Pete Williams, Hobo worried blues
TTITLE9=Robert Pete Williams, Hay cutting song
TTITLE10=Ford "Blind snooks" Eaglin, Mama don't you tear my clothes
TTITLE11=Ford "Blind snooks" Eaglin, Mailman passed
TTITLE12=Ford "Blind snooks" Eaglin, I'm a country boy
TTITLE13=Ford "Blind snooks" Eaglin, I've got a woman
TTITLE14=Ford "Blind snooks" Eaglin, Alberta
TTITLE15=Ford "Blind snooks" Eaglin, Brown skinned woman
TTITLE16=Ford "Blind snooks" Eaglin, Don't you lie to me
TTITLE17=Ford "Blind snooks" Eaglin, That's all right
TTITLE18=Ford "Blind snooks" Eaglin, Well, I had my fun (Goin' down slow)
TTITLE19=Ford "Blind snooks" Eaglin, Bottle up and go
TTITLE20=Ford "Blind snooks" Eaglin, The walkin' blues
TTITLE21=Ford "Blind snooks" Eaglin, Fly right, baby
EXTD=
EXTT0=
EXTT1=
EXTT2=
EXTT3=
EXTT4=
EXTT5=
EXTT6=
EXTT7=
EXTT8=
EXTT9=
EXTT10=
EXTT11=
EXTT12=
EXTT13=
EXTT14=
EXTT15=
EXTT16=
EXTT17=
EXTT18=
EXTT19=
EXTT20=
EXTT21=
PLAYORDER=
